<?xml version="1.0" encoding="UTF-8" ?>
<!DOCTYPE svg PUBLIC "-//W3C//DTD SVG 1.1//EN" "http://www.w3.org/Graphics/SVG/1.1/DTD/svg11.dtd">
<svg width="96pt" height="96pt" viewBox="0 0 96 96" version="1.1" xmlns="http://www.w3.org/2000/svg">
<path fill="#bf2065" d=" M 0.00 0.00 L 96.00 0.00 L 96.00 96.00 L 0.00 96.00 L 0.00 0.00 Z" />
<path fill="#fff8ff" d=" M 75.40 6.31 C 79.96 6.17 84.53 5.97 89.07 6.55 C 78.68 20.59 67.30 33.90 57.02 48.03 C 64.35 58.62 72.33 68.76 79.91 79.18 C 82.70 83.11 85.99 86.73 88.12 91.09 C 83.31 90.89 76.83 93.20 73.54 88.48 C 64.30 76.38 55.20 64.17 45.81 52.18 C 44.84 50.84 43.64 49.60 43.15 47.98 C 44.27 45.61 46.07 43.66 47.64 41.59 C 57.03 29.93 66.16 18.07 75.40 6.31 Z" />
</svg>
