<?xml version="1.0" encoding="UTF-8" ?>
<!DOCTYPE svg PUBLIC "-//W3C//DTD SVG 1.1//EN" "http://www.w3.org/Graphics/SVG/1.1/DTD/svg11.dtd">
<svg width="480pt" height="96pt" viewBox="0 0 480 96" version="1.1" xmlns="http://www.w3.org/2000/svg">
<path fill="#bf2065" d=" M 0.00 0.00 L 96.00 0.00 C 96.00 32.00 96.02 64.00 96.00 96.00 L 0.00 96.00 L 0.00 0.00 Z" />
<path fill="#ffffff" d=" M 96.00 0.00 L 480.00 0.00 L 480.00 96.00 L 96.00 96.00 C 96.02 64.00 96.00 32.00 96.00 0.00 Z" />
<path fill="#ffffff" d=" M 75.37 6.28 C 79.97 6.05 84.57 6.09 89.16 6.47 C 78.76 20.56 67.39 33.89 57.07 48.04 C 67.11 62.63 78.56 76.24 88.27 91.05 C 84.87 91.21 81.44 91.74 78.04 91.29 C 74.58 90.86 72.83 87.52 70.86 85.08 C 61.72 72.60 51.90 60.63 42.91 48.05 C 44.76 45.23 46.80 42.53 48.92 39.90 C 57.85 28.78 66.56 17.49 75.37 6.28 Z" />
<path fill="#bf2065" d=" M 161.50 35.97 C 160.69 32.92 164.06 31.96 166.31 31.49 C 167.18 33.12 169.00 34.91 167.97 36.90 C 166.93 39.94 161.46 39.37 161.50 35.97 Z" />
<path fill="#bf2065" d=" M 246.02 34.04 C 249.60 30.80 255.17 31.55 258.48 34.80 C 258.12 36.87 258.68 39.44 256.94 40.99 C 255.37 42.46 253.42 43.43 251.62 44.57 C 253.54 47.41 255.63 50.14 258.02 52.60 C 259.01 50.78 260.08 48.99 260.71 47.01 C 259.79 45.88 258.73 44.90 257.71 43.89 C 260.98 43.89 264.26 43.89 267.54 43.90 C 263.93 46.57 261.80 50.56 259.39 54.24 C 260.82 55.18 262.21 56.25 263.82 56.89 C 265.42 56.24 266.91 55.36 268.49 54.66 C 267.03 57.42 265.48 60.93 262.01 61.49 C 259.06 62.11 256.50 60.27 254.10 58.88 C 250.17 60.83 245.64 62.45 241.24 61.14 C 237.84 60.16 235.27 56.61 236.03 53.03 C 236.48 48.73 240.78 46.67 244.04 44.65 C 243.54 41.09 242.73 36.57 246.02 34.04 Z" />
<path fill="#bf2065" d=" M 284.46 55.40 C 288.20 47.46 291.44 39.28 295.41 31.45 C 299.07 39.26 302.36 47.24 305.90 55.11 C 306.85 57.46 308.69 59.24 310.43 61.01 C 305.41 60.97 300.38 61.09 295.36 60.90 C 296.79 60.17 298.24 59.49 299.70 58.80 C 298.90 56.87 298.09 54.94 297.28 53.02 C 294.13 53.04 290.98 53.04 287.83 53.04 C 287.17 54.80 286.54 56.57 285.96 58.36 C 287.54 59.20 289.12 60.03 290.68 60.91 C 287.02 61.05 283.36 60.99 279.70 61.02 C 281.49 59.33 283.43 57.69 284.46 55.40 Z" />
<path fill="#bf2065" d=" M 387.16 32.07 C 387.95 32.02 389.54 31.92 390.34 31.87 C 391.73 33.75 393.09 36.94 390.38 38.39 C 387.43 40.33 384.96 37.06 384.77 34.31 C 385.56 33.56 386.36 32.82 387.16 32.07 Z" />
<path fill="#bf2065" d=" M 105.83 32.74 C 110.77 32.73 115.71 32.62 120.64 32.90 C 119.40 33.60 118.22 34.38 117.08 35.23 C 116.63 38.65 116.91 42.12 116.88 45.56 C 121.14 42.18 125.51 38.92 129.37 35.08 C 127.94 34.39 126.50 33.71 125.08 33.00 C 129.07 32.62 133.09 32.71 137.09 32.75 L 137.06 33.45 C 131.70 35.80 127.66 40.19 122.99 43.60 C 128.20 49.47 132.10 56.71 138.88 61.00 C 133.59 61.01 128.30 60.99 123.01 61.00 C 123.68 60.37 125.01 59.10 125.68 58.46 C 123.00 54.65 120.10 51.00 116.95 47.56 C 116.96 51.19 116.51 54.88 117.17 58.47 C 118.31 59.41 119.57 60.17 120.78 61.01 C 115.53 60.98 110.27 61.08 105.02 60.93 C 106.49 60.18 107.99 59.46 109.48 58.74 C 109.96 51.20 109.96 43.59 109.58 36.05 C 109.60 34.04 107.08 34.21 105.79 33.49 L 105.83 32.74 Z" />
<path fill="#ffffff" d=" M 250.62 33.39 C 252.01 34.98 253.77 36.62 253.78 38.89 C 253.52 40.74 251.66 41.58 250.39 42.65 C 249.17 39.60 247.50 35.95 250.62 33.39 Z" />
<path fill="#bf2065" d=" M 415.57 43.31 C 418.75 40.27 421.78 37.08 424.38 33.52 C 424.53 36.09 424.58 38.66 424.62 41.23 C 426.10 41.26 427.59 41.29 429.08 41.32 C 429.09 41.95 429.09 43.21 429.10 43.84 C 427.59 43.85 426.08 43.86 424.59 43.87 C 424.84 48.68 423.85 53.68 425.25 58.35 C 426.72 57.66 428.15 56.87 429.60 56.14 C 428.61 57.92 427.86 60.21 425.72 60.91 C 423.26 61.65 419.75 61.18 418.82 58.43 C 417.89 53.83 418.33 49.10 418.25 44.45 C 417.58 44.17 416.24 43.60 415.57 43.31 Z" />
<path fill="#bf2065" d=" M 139.82 46.05 C 140.35 42.26 144.69 40.83 148.01 40.77 C 150.81 40.47 154.47 41.37 155.37 44.40 C 156.10 48.87 155.83 53.43 155.88 57.94 C 156.63 57.80 158.12 57.52 158.87 57.38 C 157.38 60.44 154.39 61.63 151.11 61.23 C 150.77 60.65 150.08 59.48 149.73 58.90 C 147.16 60.14 144.35 61.96 141.38 60.88 C 138.67 59.30 138.97 55.09 141.15 53.20 C 143.65 50.97 146.81 49.72 149.75 48.18 C 149.59 46.71 149.54 45.22 149.20 43.77 C 148.04 42.84 146.41 43.01 145.04 42.67 C 145.35 44.37 145.87 46.04 145.94 47.78 C 144.79 50.72 139.01 49.47 139.82 46.05 Z" />
<path fill="#bf2065" d=" M 158.70 41.52 C 161.74 41.29 164.80 41.28 167.85 41.25 C 167.91 46.98 167.82 52.71 167.93 58.44 C 168.90 59.28 169.87 60.13 170.83 60.98 C 166.89 61.01 162.95 61.00 159.01 61.00 C 159.94 60.08 160.87 59.16 161.81 58.24 C 161.78 53.41 161.82 48.57 161.75 43.74 C 160.73 43.00 159.71 42.26 158.70 41.52 Z" />
<path fill="#bf2065" d=" M 173.16 50.77 C 170.31 47.75 171.78 41.71 176.03 40.91 C 178.73 40.74 181.41 41.30 184.11 41.26 C 184.18 43.70 184.23 46.14 184.20 48.58 C 182.57 46.57 181.36 44.00 178.93 42.82 C 177.79 43.11 176.67 43.46 175.57 43.86 C 177.94 46.40 180.91 48.23 183.50 50.52 C 186.92 53.45 185.49 60.24 180.98 61.25 C 178.79 61.80 176.56 61.04 174.40 60.74 C 173.69 61.05 172.98 61.36 172.27 61.66 C 172.20 58.92 172.08 56.17 172.00 53.43 C 174.00 55.69 175.42 59.00 178.69 59.64 C 179.24 59.20 180.34 58.33 180.88 57.89 C 179.05 54.78 175.55 53.34 173.16 50.77 Z" />
<path fill="#bf2065" d=" M 191.68 42.67 C 194.51 40.10 199.47 39.92 202.14 42.83 C 204.19 44.86 204.37 47.89 204.83 50.57 C 201.14 50.69 197.45 50.64 193.76 50.77 C 194.81 53.54 195.71 57.45 199.18 57.99 C 201.48 57.47 203.12 55.48 205.18 54.39 C 204.23 56.29 203.43 58.39 201.78 59.82 C 197.87 62.91 190.83 61.80 189.12 56.75 C 187.47 52.14 187.68 46.03 191.68 42.67 Z" />
<path fill="#bf2065" d=" M 206.07 42.05 C 206.33 41.85 206.86 41.45 207.12 41.25 C 209.71 41.29 212.30 41.29 214.90 41.30 C 214.86 42.10 214.79 43.71 214.75 44.51 C 216.88 42.36 219.60 39.56 222.93 41.20 C 223.94 43.08 223.91 45.90 221.74 46.93 C 219.99 46.76 218.46 45.80 216.88 45.11 C 214.55 48.64 214.68 53.02 214.90 57.07 C 214.84 58.85 216.66 59.77 217.60 61.04 C 213.76 60.99 209.92 61.00 206.09 61.00 C 206.99 60.07 207.90 59.15 208.81 58.23 C 208.78 53.34 208.79 48.45 208.79 43.56 C 208.11 43.18 206.75 42.43 206.07 42.05 Z" />
<path fill="#bf2065" d=" M 313.17 50.77 C 310.30 47.75 311.79 41.66 316.07 40.90 C 318.76 40.75 321.42 41.29 324.11 41.26 C 324.18 43.70 324.23 46.14 324.19 48.58 C 322.57 46.57 321.36 44.01 318.95 42.82 C 317.80 43.11 316.67 43.45 315.57 43.86 C 317.94 46.39 320.91 48.22 323.49 50.52 C 326.94 53.45 325.48 60.28 320.93 61.26 C 318.74 61.79 316.51 61.03 314.35 60.73 C 313.67 61.07 312.99 61.41 312.31 61.75 C 312.21 58.97 312.07 56.19 311.97 53.41 C 314.03 55.65 315.42 59.18 318.82 59.58 C 319.33 59.16 320.36 58.31 320.88 57.89 C 319.05 54.78 315.55 53.35 313.17 50.77 Z" />
<path fill="#bf2065" d=" M 329.45 50.54 C 326.97 47.53 328.26 42.26 332.02 40.98 C 334.20 40.42 336.42 41.16 338.57 41.55 C 339.05 41.26 340.00 40.67 340.47 40.38 C 340.64 43.08 340.78 45.78 340.79 48.48 C 338.74 46.32 337.13 41.91 333.36 43.02 C 333.26 43.45 333.05 44.32 332.94 44.76 C 335.12 47.09 338.05 48.53 340.29 50.78 C 343.31 53.76 341.94 59.82 337.90 61.14 C 334.88 61.64 331.82 61.04 328.78 61.19 C 328.72 58.57 328.61 55.94 328.68 53.32 C 330.46 55.71 331.81 58.89 335.02 59.65 C 336.41 59.27 337.08 58.38 337.01 56.97 C 334.82 54.45 331.65 53.05 329.45 50.54 Z" />
<path fill="#bf2065" d=" M 350.27 41.17 C 353.95 40.15 358.54 40.83 360.81 44.21 C 363.50 48.41 363.62 54.50 360.47 58.50 C 357.91 61.84 352.97 62.16 349.31 60.70 C 342.29 56.80 342.64 44.20 350.27 41.17 Z" />
<path fill="#bf2065" d=" M 367.40 44.41 C 369.90 40.36 376.04 39.54 379.77 42.26 C 381.70 43.65 381.10 46.26 381.32 48.29 C 379.66 48.36 377.99 48.37 376.33 48.31 C 375.38 46.38 375.92 42.74 373.06 42.63 C 370.25 46.89 371.08 52.99 374.39 56.72 C 376.94 59.25 379.99 56.18 382.63 55.49 C 380.72 59.81 375.93 62.76 371.22 61.16 C 364.79 58.64 363.96 49.64 367.40 44.41 Z" />
<path fill="#bf2065" d=" M 382.93 41.25 C 385.81 41.29 388.69 41.29 391.58 41.28 C 391.63 47.08 391.40 52.89 391.78 58.69 C 392.74 59.45 393.69 60.21 394.64 60.99 C 390.72 61.02 386.81 60.98 382.89 61.04 C 383.83 59.75 385.49 58.70 385.48 56.94 C 385.59 52.78 385.74 48.59 385.37 44.44 C 384.72 43.26 383.75 42.30 382.93 41.25 Z" />
<path fill="#bf2065" d=" M 395.59 47.02 C 397.36 40.50 407.44 38.24 411.51 43.57 C 412.91 48.10 412.10 53.02 412.25 57.72 C 413.10 57.73 414.81 57.75 415.66 57.76 C 414.01 59.20 412.48 61.46 409.99 61.21 C 408.27 61.41 407.05 59.98 405.74 59.15 C 403.38 60.29 400.80 61.80 398.10 60.95 C 395.24 59.51 395.27 55.39 397.47 53.38 C 399.98 51.02 403.26 49.76 406.27 48.18 C 405.99 46.66 406.11 45.01 405.45 43.58 C 404.35 42.69 402.79 43.16 401.50 42.93 C 401.90 45.02 402.28 47.12 402.49 49.24 C 399.89 49.52 397.29 49.22 395.59 47.02 Z" />
<path fill="#bf2065" d=" M 434.47 42.47 C 437.38 39.96 442.42 40.03 444.90 43.13 C 446.76 45.15 446.88 48.04 447.35 50.60 C 443.71 50.67 440.08 50.64 436.45 50.71 C 437.19 53.50 438.10 56.81 441.11 57.94 C 443.72 58.05 445.46 55.52 447.65 54.44 C 446.60 56.62 445.61 59.09 443.44 60.41 C 439.57 62.68 433.64 61.55 431.81 57.15 C 429.89 52.41 430.09 45.82 434.47 42.47 Z" />
<path fill="#bf2065" d=" M 451.05 50.91 C 448.24 48.09 449.25 42.39 453.13 41.05 C 455.25 40.35 457.48 41.13 459.60 41.51 C 460.17 41.28 461.30 40.82 461.86 40.59 C 461.90 43.22 461.98 45.85 462.03 48.48 C 460.42 46.55 459.11 44.26 456.94 42.88 C 455.70 43.11 454.47 43.41 453.27 43.77 C 455.70 46.42 458.80 48.28 461.42 50.71 C 464.64 53.69 463.22 60.04 458.93 61.18 C 455.95 61.61 452.94 61.03 449.94 61.20 C 449.90 58.59 449.84 55.98 449.88 53.37 C 451.71 55.72 453.15 58.78 456.25 59.68 C 457.50 59.25 458.20 58.40 458.36 57.11 C 456.26 54.65 453.29 53.21 451.05 50.91 Z" />
<path fill="#ffffff" d=" M 193.65 48.75 C 194.12 46.13 195.09 43.64 196.93 41.67 C 198.57 43.76 199.12 46.32 199.39 48.89 C 197.47 48.86 195.56 48.82 193.65 48.75 Z" />
<path fill="#ffffff" d=" M 292.68 42.57 C 293.94 45.35 295.15 48.16 296.34 50.98 C 293.84 50.99 291.35 51.00 288.86 51.00 C 290.12 48.18 291.38 45.36 292.68 42.57 Z" />
<path fill="#ffffff" d=" M 351.29 45.02 C 351.37 43.03 353.73 43.12 355.09 42.45 C 356.57 48.27 357.55 55.27 353.95 60.51 C 352.79 59.15 350.96 58.00 351.00 55.99 C 350.74 52.35 350.61 48.63 351.29 45.02 Z" />
<path fill="#ffffff" d=" M 436.25 48.77 C 436.68 46.22 437.57 43.78 439.15 41.69 C 441.10 43.62 441.74 46.22 441.96 48.86 C 440.05 48.86 438.15 48.83 436.25 48.77 Z" />
<path fill="#ffffff" d=" M 242.64 52.22 C 241.51 50.25 242.99 47.16 245.20 47.00 C 247.51 50.47 249.75 54.00 252.40 57.23 C 248.25 59.13 243.87 56.34 242.64 52.22 Z" />
<path fill="#ffffff" d=" M 145.43 55.13 C 146.14 53.06 147.99 51.75 149.52 50.33 C 149.32 52.49 150.14 55.03 148.74 56.92 C 147.21 57.71 145.57 56.87 145.43 55.13 Z" />
<path fill="#ffffff" d=" M 402.35 56.68 C 401.10 53.78 404.33 51.96 406.11 50.34 C 406.02 52.46 406.06 54.60 405.68 56.69 C 404.55 57.27 403.44 57.26 402.35 56.68 Z" />
</svg>
